# File created by Blade
# Date/Time:  Tue Sep 23 19:18:47 2014
# Frame Rate: 120.000 fps
#------------------------------------------------------
:FULLY-SPECIFIED
:DEGREES
1822
root 1.549450 34.641258 -1.853558 131.418932 -8.074139 -40.557106
Spine -77.068923 -1.180151 23.758733
Head -23.809795 31.776685 34.287420
LeftShoulder -24.296171 28.975959 38.830105
LeftArm 113.089555 -74.688387 -122.542181
LeftForeArm -1.394682 -0.000000 88.041265
LeftHand -60.649197 -0.000000 6.403686
LeftHandThumb1 -26.253704 0.000000 33.147579
RightShoulder -38.206679 -39.112749 -6.663905
RightArm 24.336483 59.161529 70.994084
RightForeArm 71.870125 0.000000 1.876423
RightHand 15.361679 -0.000000 7.272008
RightHandThumb1 -24.326973 -0.000000 -32.862282
LeftUpLeg -122.267368 38.493878 -14.902490
LeftLeg -8.625118 -0.000000 0.000000
LeftFoot 2.384320 -6.348730 3.185917
LeftToeBase 4.629242 -0.000000 -0.000000
RightUpLeg 5.733999 0.701172 -31.675404
RightLeg 59.886328 -0.000000 -0.000000
RightFoot 34.047671 4.852056 -0.898229
RightToeBase 36.303268 -0.000000 -0.000000
1823
root 1.558173 34.631831 -1.870283 131.413873 -8.106872 -40.480731
Spine -76.973743 -1.155467 23.823179
Head -23.998704 31.897924 34.164056
LeftShoulder -24.337001 28.989501 38.743511
LeftArm 112.932217 -74.773716 -122.316474
LeftForeArm -1.438649 -0.000000 87.840650
LeftHand -60.637987 -0.000000 6.517381
LeftHandThumb1 -26.253704 0.000000 33.147579
RightShoulder -38.221930 -39.091709 -6.729677
RightArm 24.847206 59.840259 71.968187
RightForeArm 70.877485 -0.000000 2.760565
RightHand 15.453329 -0.000000 6.433535
RightHandThumb1 -24.326973 -0.000000 -32.862282
LeftUpLeg -122.132616 38.481426 -14.658502
LeftLeg -8.664495 -0.000000 0.000000
LeftFoot 2.459953 -6.191842 3.669115
LeftToeBase 4.225917 -0.000000 -0.000000
RightUpLeg 5.716191 0.808554 -31.710844
RightLeg 59.972867 -0.000000 -0.000000
RightFoot 34.141999 4.913442 -0.853470
RightToeBase 36.551346 -0.000000 -0.000000
1824
root 1.563816 34.619726 -1.888280 131.363940 -8.160486 -40.390639
Spine -76.847620 -1.175948 23.888564
Head -24.221066 32.032361 34.029581
LeftShoulder -24.314129 28.990794 38.756528
LeftArm 112.837897 -74.901889 -122.295327
LeftForeArm -1.361579 -0.000000 87.668144
LeftHand -60.663452 -0.000000 6.539520
LeftHandThumb1 -26.253704 0.000000 33.147579
RightShoulder -38.242506 -39.090892 -6.805082
RightArm 25.442549 60.584570 73.123156
RightForeArm 69.792723 0.000000 3.830783
RightHand 15.474531 -0.000000 5.437171
RightHandThumb1 -24.326973 -0.000000 -32.862282
LeftUpLeg -121.862220 38.494966 -14.272460
LeftLeg -8.730062 -0.000000 0.000000
LeftFoot 2.618517 -5.822092 4.614365
LeftToeBase 3.495393 -0.000000 -0.000000
RightUpLeg 5.783958 0.932122 -31.718028
RightLeg 60.034055 -0.000000 -0.000000
RightFoot 34.216003 4.864871 -0.861508
RightToeBase 36.732747 -0.000000 -0.000000
1825
root 1.568601 34.612386 -1.906015 131.335344 -8.187916 -40.296530
Spine -76.755088 -1.188783 23.867701
Head -24.432668 32.104993 33.979276
LeftShoulder -24.200768 29.007251 38.858715
LeftArm 112.803655 -75.015378 -122.381063
LeftForeArm -1.325158 -0.000000 87.557406
LeftHand -60.652112 0.000000 6.452779
LeftHandThumb1 -26.253704 0.000000 33.147579
RightShoulder -38.362950 -39.198823 -6.712737
RightArm 26.178424 61.354213 74.424978
RightForeArm 68.733871 -0.000000 4.925552
RightHand 15.520651 -0.000000 4.413744
RightHandThumb1 -24.326973 -0.000000 -32.862282
LeftUpLeg -121.730192 38.474485 -14.020451
LeftLeg -8.714653 -0.000000 0.000000
LeftFoot 2.689570 -5.657599 5.279312
LeftToeBase 2.893780 -0.000000 -0.000000
RightUpLeg 5.811702 1.098039 -31.667551
RightLeg 60.140927 -0.000000 -0.000000
RightFoot 34.263181 4.771798 -0.825739
RightToeBase 36.900104 -0.000000 -0.000000
1826
root 1.575092 34.607216 -1.922680 131.319702 -8.238753 -40.250256
Spine -76.628024 -1.211058 23.855088
Head -24.701862 32.207550 33.979234
LeftShoulder -24.130351 28.977397 38.931925
LeftArm 112.740328 -75.268885 -122.418143
LeftForeArm -1.504889 0.000000 87.479529
LeftHand -60.660279 -0.000000 6.623060
LeftHandThumb1 -26.253704 0.000000 33.147579
RightShoulder -38.452548 -39.237896 -6.611693
RightArm 26.958305 62.111451 75.751290
RightForeArm 67.697710 -0.000000 6.054202
RightHand 15.456242 -0.000000 3.541988
RightHandThumb1 -24.326973 -0.000000 -32.862282
LeftUpLeg -121.580400 38.474818 -13.791328
LeftLeg -8.721692 -0.000000 0.000000
LeftFoot 2.719183 -5.411743 5.775198
LeftToeBase 2.675133 -0.000000 -0.000000
RightUpLeg 5.794199 1.314829 -31.653762
RightLeg 60.306747 -0.000000 -0.000000
RightFoot 34.358412 4.790191 -0.829118
RightToeBase 36.977682 -0.000000 -0.000000
1827
root 1.582500 34.603097 -1.939331 131.270314 -8.295694 -40.222850
Spine -76.436683 -1.264175 23.891097
Head -25.007071 32.348978 33.990094
LeftShoulder -24.229084 28.992080 38.870274
LeftArm 112.924730 -75.439950 -122.624032
LeftForeArm -1.566190 -0.000000 87.413232
LeftHand -60.719868 -0.000000 6.536335
LeftHandThumb1 -26.253704 0.000000 33.147579
RightShoulder -38.515771 -39.237882 -6.476704
RightArm 27.733940 62.699168 76.946409
RightForeArm 66.752513 0.000000 7.058667
RightHand 15.412771 -0.000000 2.706188
RightHandThumb1 -24.326973 -0.000000 -32.862282
LeftUpLeg -121.420774 38.474692 -13.599824
LeftLeg -8.731063 -0.000000 0.000000
LeftFoot 2.754816 -5.222414 6.187075
LeftToeBase 2.494621 -0.000000 -0.000000
RightUpLeg 5.800769 1.582375 -31.657619
RightLeg 60.467970 -0.000000 -0.000000
RightFoot 34.510496 4.849053 -0.744044
RightToeBase 37.027513 -0.000000 -0.000000
1828
root 1.591096 34.600593 -1.959757 131.219770 -8.346986 -40.198759
Spine -76.254462 -1.303671 23.801135
Head -25.331438 32.425005 34.000753
LeftShoulder -24.113052 28.924346 38.980437
LeftArm 113.022757 -75.703384 -122.847828
LeftForeArm -1.749945 -0.000000 87.403099
LeftHand -60.699800 -0.000000 6.590987
LeftHandThumb1 -26.253704 0.000000 33.147579
RightShoulder -38.669599 -39.311983 -6.275235
RightArm 28.664401 63.434527 78.404772
RightForeArm 65.662559 0.000000 8.156300
RightHand 15.229122 -0.000000 1.833770
RightHandThumb1 -24.326973 -0.000000 -32.862282
LeftUpLeg -121.299415 38.501246 -13.425250
LeftLeg -8.700955 -0.000000 0.000000
LeftFoot 2.783523 -5.118599 6.378767
LeftToeBase 2.367580 -0.000000 -0.000000
RightUpLeg 5.822511 1.817583 -31.653666
RightLeg 60.652975 -0.000000 -0.000000
RightFoot 34.506064 4.897947 -0.823686
RightToeBase 37.034654 -0.000000 -0.000000
